<?xml version="1.0" encoding="UTF-8"?>
<svg width="128pt" height="128pt" version="1.1" viewBox="0 0 128 128" xmlns="http://www.w3.org/2000/svg">
 <path d="m101.34 21.336h-16v-2.6641c0-4.4102-3.5898-8-8-8h-26.664c-4.4102 0-8 3.5898-8 8v2.6641h-16c-5.8867 0-10.664 4.7852-10.664 10.664v2.6641c0 2.9414 2.3906 5.3359 5.3359 5.3359h85.336c2.9414 0 5.3359-2.3906 5.3359-5.3359v-2.6641c0-5.8867-4.7852-10.664-10.664-10.664zm-53.336-2.6719c0-1.4688 1.1953-2.6641 2.6641-2.6641h26.664c1.4688 0 2.6641 1.1953 2.6641 2.6641v2.6641h-32v-2.6641z" fill="#fff"/>
 <path d="m25.113 48.273 6.1562 59.492c0.56641 5.4336 5.1445 9.5703 10.609 9.5703h44.23c5.4648 0 10.051-4.1367 10.609-9.5703l6.1562-59.492c0.16406-1.5742-1.0703-2.9414-2.6562-2.9414h-72.449c-1.5781 0-2.8164 1.3711-2.6562 2.9414zm23.051 55.719c-0.054687 0-0.10937 0.003906-0.17187 0.003906-1.3945 0-2.5703-1.0859-2.6602-2.5l-2.6641-42.664c-0.09375-1.4688 1.0234-2.7344 2.4961-2.8281 1.4883-0.070312 2.7344 1.0234 2.8281 2.4961l2.6641 42.664c0.09375 1.4688-1.0234 2.7344-2.4961 2.8281zm18.5-2.6602c0 1.4766-1.1953 2.6641-2.6641 2.6641s-2.6641-1.1914-2.6641-2.6641v-42.664c0-1.4766 1.1953-2.6641 2.6641-2.6641s2.6641 1.1914 2.6641 2.6641zm15.996 0.16406c-0.089844 1.4141-1.2617 2.5-2.6602 2.5-0.054688 0-0.10938 0-0.17188-0.003906-1.4688-0.089844-2.5859-1.3555-2.4961-2.8281l2.6641-42.664c0.09375-1.4688 1.3633-2.5547 2.8281-2.4961 1.4688 0.089844 2.5859 1.3555 2.4961 2.8281z" fill="#fff"/>
</svg>
